STARTFONT 2.1
FONT -jmk-Neep-Bold-R-Normal--11-100-75-75-C-60-US-ASCII
SIZE 10 75 75
FONTBOUNDINGBOX 6 11 0 -2
STARTPROPERTIES 29
FONTNAME_REGISTRY ""
FOUNDRY "jmk"
FAMILY_NAME "Neep"
WEIGHT_NAME "Bold"
SLANT "R"
SETWIDTH_NAME "Normal"
ADD_STYLE_NAME ""
PIXEL_SIZE 11
POINT_SIZE 100
RESOLUTION_X 75
RESOLUTION_Y 75
SPACING "C"
AVERAGE_WIDTH 60
CHARSET_REGISTRY "US"
CHARSET_ENCODING "ASCII"
COPYRIGHT "Jim Knoble <jmknoble@pobox.com>"
WEIGHT 280
RESOLUTION 75
X_HEIGHT 5
FIGURE_WIDTH 6
QUAD_WIDTH 6
FONT_ASCENT 9
FONT_DESCENT 2
_XMBDFED_INFO "Edited with xmbdfed 3.7."
RELATIVE_WEIGHT 70
RELATIVE_SETWIDTH 50
CAP_HEIGHT 7
UNDERLINE_POSITION 1
UNDERLINE_THICKNESS 1
ENDPROPERTIES
CHARS 38
STARTCHAR solid box
ENCODING 0
SWIDTH 576 0
DWIDTH 6 0
BBX 6 11 0 -2
BITMAP
00
78
78
78
78
78
78
78
78
78
00
ENDCHAR
STARTCHAR diamond
ENCODING 1
SWIDTH 576 0
DWIDTH 6 0
BBX 6 11 0 -2
BITMAP
00
00
00
20
70
F8
70
20
00
00
00
ENDCHAR
STARTCHAR dithered box
ENCODING 2
SWIDTH 576 0
DWIDTH 6 0
BBX 6 11 0 -2
BITMAP
00
54
A8
54
A8
54
A8
54
A8
54
A8
ENDCHAR
STARTCHAR horizontal tab visible control
ENCODING 3
SWIDTH 576 0
DWIDTH 6 0
BBX 6 11 0 -2
BITMAP
00
D8
D8
F8
D8
D8
00
78
30
30
30
ENDCHAR
STARTCHAR form feed visible control
ENCODING 4
SWIDTH 576 0
DWIDTH 6 0
BBX 6 11 0 -2
BITMAP
00
F0
C0
E0
C0
C0
78
60
70
60
60
ENDCHAR
STARTCHAR carriage return visible control
ENCODING 5
SWIDTH 576 0
DWIDTH 6 0
BBX 6 11 0 -2
BITMAP
00
70
C0
C0
70
00
70
68
70
78
68
ENDCHAR
STARTCHAR line feed visible control
ENCODING 6
SWIDTH 576 0
DWIDTH 6 0
BBX 6 11 0 -2
BITMAP
00
C0
C0
C0
F0
00
78
60
70
60
60
ENDCHAR
STARTCHAR degree sign
ENCODING 7
SWIDTH 576 0
DWIDTH 6 0
BBX 6 11 0 -2
BITMAP
00
70
D8
D8
70
00
00
00
00
00
00
ENDCHAR
STARTCHAR plus-minus-sign
ENCODING 8
SWIDTH 576 0
DWIDTH 6 0
BBX 6 11 0 -2
BITMAP
00
00
30
30
FC
30
30
00
FC
FC
00
ENDCHAR
STARTCHAR null visible control
ENCODING 9
SWIDTH 576 0
DWIDTH 6 0
BBX 6 11 0 -2
BITMAP
00
D8
F8
F8
D8
00
60
60
60
60
78
ENDCHAR
STARTCHAR vertical tab visible control
ENCODING 10
SWIDTH 576 0
DWIDTH 6 0
BBX 6 11 0 -2
BITMAP
00
D8
D8
D8
70
70
00
78
30
30
30
ENDCHAR
STARTCHAR box drawing lower right corner
ENCODING 11
SWIDTH 576 0
DWIDTH 6 0
BBX 6 11 0 -2
BITMAP
30
30
30
30
30
F0
F0
00
00
00
00
ENDCHAR
STARTCHAR box drawing upper right corner
ENCODING 12
SWIDTH 576 0
DWIDTH 6 0
BBX 6 11 0 -2
BITMAP
00
00
00
00
00
F0
F0
30
30
30
30
ENDCHAR
STARTCHAR box drawing upper left corner
ENCODING 13
SWIDTH 576 0
DWIDTH 6 0
BBX 6 11 0 -2
BITMAP
00
00
00
00
00
3C
3C
30
30
30
30
ENDCHAR
STARTCHAR box drawing lower left corner
ENCODING 14
SWIDTH 576 0
DWIDTH 6 0
BBX 6 11 0 -2
BITMAP
30
30
30
30
30
3C
3C
00
00
00
00
ENDCHAR
STARTCHAR box drawing cross
ENCODING 15
SWIDTH 576 0
DWIDTH 6 0
BBX 6 11 0 -2
BITMAP
30
30
30
30
30
FC
FC
30
30
30
30
ENDCHAR
STARTCHAR box drawing horizontal line high
ENCODING 16
SWIDTH 576 0
DWIDTH 6 0
BBX 6 11 0 -2
BITMAP
00
FC
FC
00
00
00
00
00
00
00
00
ENDCHAR
STARTCHAR box drawing horizontal line medium high
ENCODING 17
SWIDTH 576 0
DWIDTH 6 0
BBX 6 11 0 -2
BITMAP
00
00
00
FC
FC
00
00
00
00
00
00
ENDCHAR
STARTCHAR box drawing horizontal line middle
ENCODING 18
SWIDTH 576 0
DWIDTH 6 0
BBX 6 11 0 -2
BITMAP
00
00
00
00
00
FC
FC
00
00
00
00
ENDCHAR
STARTCHAR box drawing horizontal line medium low
ENCODING 19
SWIDTH 576 0
DWIDTH 6 0
BBX 6 11 0 -2
BITMAP
00
00
00
00
00
00
00
FC
FC
00
00
ENDCHAR
STARTCHAR box drawing horizontal line low
ENCODING 20
SWIDTH 576 0
DWIDTH 6 0
BBX 6 11 0 -2
BITMAP
00
00
00
00
00
00
00
00
00
FC
FC
ENDCHAR
STARTCHAR box drawing left tee
ENCODING 21
SWIDTH 576 0
DWIDTH 6 0
BBX 6 11 0 -2
BITMAP
30
30
30
30
30
3C
3C
30
30
30
30
ENDCHAR
STARTCHAR box drawing right tee
ENCODING 22
SWIDTH 576 0
DWIDTH 6 0
BBX 6 11 0 -2
BITMAP
30
30
30
30
30
F0
F0
30
30
30
30
ENDCHAR
STARTCHAR box drawing lower tee
ENCODING 23
SWIDTH 576 0
DWIDTH 6 0
BBX 6 11 0 -2
BITMAP
30
30
30
30
30
FC
FC
00
00
00
00
ENDCHAR
STARTCHAR box drawing upper tee
ENCODING 24
SWIDTH 576 0
DWIDTH 6 0
BBX 6 11 0 -2
BITMAP
00
00
00
00
00
FC
FC
30
30
30
30
ENDCHAR
STARTCHAR box drawing vertical line
ENCODING 25
SWIDTH 576 0
DWIDTH 6 0
BBX 6 11 0 -2
BITMAP
30
30
30
30
30
30
30
30
30
30
30
ENDCHAR
STARTCHAR less-than-or-equal sign
ENCODING 26
SWIDTH 576 0
DWIDTH 6 0
BBX 6 11 0 -2
BITMAP
00
00
18
70
C0
70
18
00
F8
F8
00
ENDCHAR
STARTCHAR greater-than-or-equal sign
ENCODING 27
SWIDTH 576 0
DWIDTH 6 0
BBX 6 11 0 -2
BITMAP
00
00
C0
70
18
70
C0
00
F8
F8
00
ENDCHAR
STARTCHAR greek small letter pi
ENCODING 28
SWIDTH 576 0
DWIDTH 6 0
BBX 6 11 0 -2
BITMAP
00
00
00
00
FC
6C
6C
6C
6C
00
00
ENDCHAR
STARTCHAR not-equal sign
ENCODING 29
SWIDTH 576 0
DWIDTH 6 0
BBX 6 11 0 -2
BITMAP
00
00
10
F8
F8
20
F8
F8
40
00
00
ENDCHAR
STARTCHAR pound sign
ENCODING 30
SWIDTH 576 0
DWIDTH 6 0
BBX 6 11 0 -2
BITMAP
00
00
30
78
60
F0
60
60
F8
00
00
ENDCHAR
STARTCHAR middle dot
ENCODING 31
SWIDTH 576 0
DWIDTH 6 0
BBX 6 11 0 -2
BITMAP
00
00
00
00
30
78
30
00
00
00
00
ENDCHAR
STARTCHAR U+0020 space
ENCODING 32
SWIDTH 576 0
DWIDTH 6 0
BBX 6 11 0 -2
BITMAP
00
00
00
00
00
00
00
00
00
00
00
ENDCHAR
STARTCHAR U+0021 exclamation mark
ENCODING 33
SWIDTH 576 0
DWIDTH 6 0
BBX 6 11 0 -2
BITMAP
00
00
30
30
30
30
30
00
30
00
00
ENDCHAR
STARTCHAR U+0022 quotation mark
ENCODING 34
SWIDTH 576 0
DWIDTH 6 0
BBX 6 11 0 -2
BITMAP
00
D8
D8
D8
00
00
00
00
00
00
00
ENDCHAR
STARTCHAR U+0023 number sign
ENCODING 35
SWIDTH 576 0
DWIDTH 6 0
BBX 6 11 0 -2
BITMAP
00
00
50
F8
F8
50
F8
F8
50
00
00
ENDCHAR
STARTCHAR U+0024 dollar sign
ENCODING 36
SWIDTH 576 0
DWIDTH 6 0
BBX 6 11 0 -2
BITMAP
00
00
20
78
E0
70
38
F0
20
00
00
ENDCHAR
STARTCHAR U+0025 percent sign
ENCODING 37
SWIDTH 576 0
DWIDTH 6 0
BBX 6 11 0 -2
BITMAP
00
00
E8
B8
F0
20
78
E8
B8
00
00
ENDCHAR
ENDFONT
